#!OML:ASF X:\für Bonn\!DataBase\2005_08_12_Daniel\c3d\Daniel.ASF
:FULLY-SPECIFIED
:DEGREES
187
root -25.9423 18.44 -25.2872 -176.334 -44.2436 172.097
lowerback 9.97913 2.06549 -3.33469
upperback 1.12278 2.17218 -2.01213
thorax -4.47282 1.06881 -0.51427
lowerneck -7.56238 -0.124986 -5.5429
upperneck 4.41847 0.334783 0.749016
head 2.73421 0.0842691 1.22809
rclavicle -1.58655e-014 4.57205e-015
rhumerus -58.0966 19.5866 -106.787
rradius 96.3314
rwrist -3.32744
rhand -18.4391 26.0083
rfingers 7.12502
rthumb 7.84655 -3.82607
lclavicle -1.58655e-014 4.57205e-015
lhumerus -75.9591 -3.68899 96.4399
lradius 108.313
lwrist 16.7678
lhand 0.249557 -10.6097
lfingers 7.12502
lthumb 25.8294 17.6565
rfemur 12.191 5.03872 22.1376
rtibia 26.9596
rfoot 1.76249 -10.0489
rtoes 1.57184
lfemur -29.1488 0.994082 -26.6075
ltibia 64.6269
lfoot -2.93564 -1.44676
ltoes -11.3526
188
root -26.1977 18.5425 -25.5661 -175.714 -44.101 171.837
lowerback 9.23494 2.18577 -3.70645
upperback 0.934142 2.32504 -2.15256
thorax -4.26677 1.15232 -0.450167
lowerneck -7.55234 -0.162444 -5.8909
upperneck 4.73163 0.306655 1.02716
head 2.8433 0.0682782 1.38326
rclavicle -4.26682e-014 -2.24603e-016
rhumerus -58.6595 20.4692 -107.432
rradius 97.206
rwrist -3.6245
rhand -17.3977 26.7536
rfingers 7.12502
rthumb 8.85154 -3.04078
lclavicle -4.26682e-014 -2.24603e-016
lhumerus -76.2907 -3.65585 95.9244
lradius 108.809
lwrist 16.5361
lhand 0.488188 -10.7238
lfingers 7.12502
lthumb 26.0579 17.5089
rfemur 12.7632 4.74892 21.6282
rtibia 26.3762
rfoot 4.27013 -10.3397
rtoes 0.616161
lfemur -28.9866 0.696133 -26.8838
ltibia 60.5107
lfoot -2.75267 -1.49865
ltoes -12.7347
189
root -26.4541 18.6292 -25.8408 -175.167 -43.9971 171.629
lowerback 8.5529 2.27323 -3.97053
upperback 0.749409 2.44487 -2.30349
thorax -4.08577 1.2168 -0.452725
lowerneck -7.39705 -0.186518 -6.1456
upperneck 4.9351 0.278654 1.24105
head 2.88725 0.0533013 1.49907
rclavicle 1.503e-014 2.3556e-014
rhumerus -59.2804 21.2317 -108.01
rradius 98.0496
rwrist -4.08682
rhand -16.3589 27.2852
rfingers 7.12502
rthumb 9.85393 -2.4642
lclavicle 1.503e-014 2.3556e-014
lhumerus -76.6056 -3.6698 95.3693
lradius 109.318
lwrist 16.3731
lhand 0.519808 -10.7488
lfingers 7.12502
lthumb 26.0882 17.4794
rfemur 13.1909 4.04639 20.9843
rtibia 26.1466
rfoot 6.57999 -10.076
rtoes -0.841258
lfemur -28.7233 0.343475 -27.0865
ltibia 56.317
lfoot -2.26236 -1.43406
ltoes -12.8466
190
root -26.7099 18.6944 -26.1113 -174.687 -43.9396 171.498
lowerback 7.91356 2.32778 -4.1418
upperback 0.577801 2.53093 -2.4414
thorax -3.91029 1.26255 -0.488945
lowerneck -7.24852 -0.202389 -6.33022
upperneck 5.11335 0.256667 1.40319
head 2.92313 0.0409177 1.58564
rclavicle -5.32246e-014 -7.95139e-015
rhumerus -59.9048 21.8951 -108.504
rradius 98.8147
rwrist -4.64226
rhand -15.4239 27.5435
rfingers 7.12502
rthumb 10.7559 -2.16115
lclavicle -5.32246e-014 -7.95139e-015
lhumerus -76.8693 -3.69066 94.7895
lradius 109.83
lwrist 16.2613
lhand 0.498461 -10.6863
lfingers 7.12502
lthumb 26.0677 17.545
rfemur 13.4316 2.91453 20.1993
rtibia 26.3253
rfoot 8.55978 -9.29972
rtoes -2.67391
lfemur -28.3622 0.0302258 -27.2535
ltibia 52.1105
lfoot -1.37603 -1.35267
ltoes -10.8651
